<?xml version="1.0" encoding="UTF-8"?>
<svg id="Layer_1" data-name="Layer 1" xmlns="http://www.w3.org/2000/svg" viewBox="0 0 1000 1000">
  <defs>
    <style>
      .cls-1 {
        fill: none;
        stroke: #212121;
        stroke-miterlimit: 10;
        stroke-width: 4px;
      }

      .cls-2 {
        fill: #6ebe44;
      }
    </style>
  </defs>
  <g id="point">
    <path class="cls-2" d="m261.82,144.04c1.06-.22,2.57-.34,4.01-.34,2.23,0,3.67.41,4.68,1.32.82.72,1.27,1.82,1.27,3.07,0,2.14-1.34,3.55-3.05,4.13v.07c1.25.43,1.99,1.58,2.38,3.26.53,2.26.91,3.82,1.25,4.44h-2.16c-.26-.46-.62-1.85-1.08-3.86-.48-2.23-1.34-3.07-3.24-3.14h-1.97v7.01h-2.09v-15.96Zm2.09,7.37h2.14c2.23,0,3.65-1.22,3.65-3.07,0-2.09-1.51-3-3.72-3.02-1.01,0-1.73.1-2.06.19v5.9Z"/>
    <path class="cls-2" d="m285.27,154.1c0,4.3-2.98,6.17-5.78,6.17-3.14,0-5.57-2.3-5.57-5.98,0-3.89,2.54-6.17,5.76-6.17s5.59,2.42,5.59,5.98Zm-9.22.12c0,2.54,1.46,4.46,3.53,4.46s3.53-1.9,3.53-4.51c0-1.97-.98-4.46-3.48-4.46s-3.58,2.3-3.58,4.51Z"/>
    <path class="cls-2" d="m287.94,152.01c0-1.37-.02-2.54-.1-3.62h1.85l.07,2.28h.1c.53-1.56,1.8-2.54,3.22-2.54.24,0,.41.02.6.07v1.99c-.22-.05-.43-.07-.72-.07-1.49,0-2.54,1.13-2.83,2.71-.05.29-.1.62-.1.98v6.19h-2.09v-7.99Z"/>
    <path class="cls-2" d="m297.15,148.38l2.54,6.86c.26.77.55,1.68.74,2.38h.05c.22-.7.46-1.58.74-2.42l2.3-6.82h2.23l-3.17,8.28c-1.51,3.98-2.54,6.02-3.98,7.27-1.03.91-2.06,1.27-2.59,1.37l-.53-1.78c.53-.17,1.22-.5,1.85-1.03.58-.46,1.3-1.27,1.78-2.35.1-.22.17-.38.17-.5s-.05-.29-.14-.55l-4.3-10.71h2.3Z"/>
    <path class="cls-2" d="m312.77,152.18c0-1.49-.05-2.69-.1-3.79h1.9l.1,1.99h.05c.86-1.42,2.23-2.26,4.13-2.26,2.81,0,4.92,2.38,4.92,5.9,0,4.18-2.54,6.24-5.28,6.24-1.54,0-2.88-.67-3.58-1.82h-.05v6.31h-2.09v-12.58Zm2.09,3.1c0,.31.05.6.1.86.38,1.46,1.66,2.47,3.17,2.47,2.23,0,3.53-1.82,3.53-4.49,0-2.33-1.22-4.32-3.46-4.32-1.44,0-2.78,1.03-3.19,2.62-.07.26-.14.58-.14.86v1.99Z"/>
    <path class="cls-2" d="m336.94,154.1c0,4.3-2.98,6.17-5.78,6.17-3.14,0-5.57-2.3-5.57-5.98,0-3.89,2.54-6.17,5.76-6.17s5.59,2.42,5.59,5.98Zm-9.22.12c0,2.54,1.46,4.46,3.53,4.46s3.53-1.9,3.53-4.51c0-1.97-.98-4.46-3.48-4.46s-3.58,2.3-3.58,4.51Z"/>
    <path class="cls-2" d="m341.96,145.12c.02.72-.5,1.3-1.34,1.3-.74,0-1.27-.58-1.27-1.3s.55-1.32,1.32-1.32,1.3.58,1.3,1.32Zm-2.35,14.88v-11.62h2.11v11.62h-2.11Z"/>
    <path class="cls-2" d="m345.22,151.53c0-1.2-.02-2.18-.1-3.14h1.87l.12,1.92h.05c.58-1.1,1.92-2.18,3.84-2.18,1.61,0,4.1.96,4.1,4.94v6.94h-2.11v-6.7c0-1.87-.7-3.43-2.69-3.43-1.39,0-2.47.98-2.83,2.16-.1.26-.14.62-.14.98v6.98h-2.11v-8.47Z"/>
    <path class="cls-2" d="m360.99,145.05v3.34h3.02v1.61h-3.02v6.26c0,1.44.41,2.26,1.58,2.26.55,0,.96-.07,1.22-.14l.1,1.58c-.41.17-1.06.29-1.87.29-.98,0-1.78-.31-2.28-.89-.6-.62-.82-1.66-.82-3.02v-6.34h-1.8v-1.61h1.8v-2.78l2.06-.55Z"/>
  </g>
  <path class="cls-1" d="m314.05,176.73c10.94,20.06,30.48,46.93,63,62,62.32,28.88,148.45,3.38,210-67"/>
</svg>