<svg width="1000" height="1000" style="resize: both; overflow: auto;"><defs><linearGradient id="voronoi_orange_red" x1="0" y1="0" x2="0" y2="1"><stop offset="0%" stop-color="#FCE38A" stop-opacity="1"></stop><stop offset="100%" stop-color="#F38181" stop-opacity="1"></stop></linearGradient></defs><defs><marker id="marker-x" markerWidth="26" markerHeight="26" markerUnits="userSpaceOnUse" refX="11" refY="11" orient="45" fill="none" stroke-width="4" stroke="#333"><polyline points="0 11, 11 11, 11 0, 11 22, 11 11, 22 11"></polyline></marker></defs><defs><marker id="marker-cross" markerWidth="26" markerHeight="26" markerUnits="userSpaceOnUse" refX="11" refY="11" orient="auto" fill="none" stroke-width="4" stroke="#333" stroke-opacity="0.6"><polyline points="0 11, 11 11, 11 0, 11 22, 11 11, 22 11"></polyline></marker></defs><defs><marker id="marker-circle" markerWidth="5" markerHeight="5" markerUnits="strokeWidth" refX="2" refY="2.5" orient="auto-start-reverse" stroke-width="1" fill="#333"><circle r="2" cx="2.5" cy="2.5"></circle></marker></defs><defs><marker id="marker-arrow-odd" markerWidth="10" markerHeight="10" markerUnits="strokeWidth" refX="8" refY="5" orient="auto" fill="none" stroke-width="1" stroke="#333"><g transform="translate(1, 1)"><polyline points="0 0, 8 4, 0 8"></polyline></g></marker></defs><defs><marker id="marker-line" markerWidth="16" markerHeight="16" markerUnits="strokeWidth" refX="8" refY="8" orient="auto" fill="#333" stroke="none"><rect width="1" height="16" x="8"></rect></marker></defs><defs><marker id="marker-arrow" markerWidth="8" markerHeight="8" markerUnits="strokeWidth" refX="2" refY="4" orient="auto" fill="#333" stroke-width="1"><g transform="translate(1, 1)"><polyline points="0 0, 6 3, 0 6"></polyline></g></marker></defs><defs><pattern id="bg-pattern" width="16" height="16" patternUnits="userSpaceOnUse"><path class="visx-pattern-line" d="M 0,16 l 16,-16 M -4,4 l 8,-8
             M 12,20 l 8,-8" stroke="grey" stroke-width="1" stroke-linecap="square" shape-rendering="auto"></path></pattern></defs><defs><pattern id="selected-element" width="16" height="16" patternUnits="userSpaceOnUse"><rect class="visx-pattern-line-background" width="16" height="16" fill="#c4adf5"></rect><path class="visx-pattern-line" d="M 0,16 l 16,-16 M -4,4 l 8,-8
             M 12,20 l 8,-8" stroke="#7862b0" stroke-width="5" stroke-linecap="square" shape-rendering="auto"></path></pattern></defs><defs><filter id="my-filter"><feGaussianBlur stdDeviation="1"></feGaussianBlur><feColorMatrix type="matrix" values="1.2 0 0 0 0   0 1.2 0 0 0   0 0 1.2 0 0   0 0 0 1 0"></feColorMatrix><feComponentTransfer><feFuncR type="gamma" amplitude="2.2"></feFuncR><feFuncG type="gamma" amplitude="2.2"></feFuncG><feFuncB type="gamma" amplitude="2.2"></feFuncB></feComponentTransfer><feBlend mode="multiply"></feBlend></filter><filter x="0" y="0" width="1" height="1" id="solid"><feFlood flood-color="#f5fbff" result="bg"></feFlood><feMerge><feMergeNode in="bg"></feMergeNode><feMergeNode in="SourceGraphic"></feMergeNode></feMerge></filter></defs><rect x="0" y="0" width="1000" height="1000" fill="transparent"></rect><rect x="100" y="100" width="800" height="800" fill="url(#bg-pattern)" fill-opacity="0.3" pointer-events="none" filter="url(#my-filter)" stdDeviation="10"></rect><text x="50%" y="50" dominant-baseline="middle" text-anchor="middle" font-size="18" font-weight="bold" fill="#01004e" font-family="Noto Sans">Main title</text><g class="visx-group" transform="translate(100, 100)"><g class="visx-group visx-grid" transform="translate(0, 0)"><g class="visx-group visx-rows" transform="translate(0, 0)"><line class="visx-line" x1="0" y1="800" x2="800" y2="800" fill="transparent" shape-rendering="crispEdges" stroke="black" stroke-width="1" stroke-opacity="0.1"></line><line class="visx-line" x1="0" y1="722" x2="800" y2="722" fill="transparent" shape-rendering="crispEdges" stroke="black" stroke-width="1" stroke-opacity="0.1"></line><line class="visx-line" x1="0" y1="643" x2="800" y2="643" fill="transparent" shape-rendering="crispEdges" stroke="black" stroke-width="1" stroke-opacity="0.1"></line><line class="visx-line" x1="0" y1="565" x2="800" y2="565" fill="transparent" shape-rendering="crispEdges" stroke="black" stroke-width="1" stroke-opacity="0.1"></line><line class="visx-line" x1="0" y1="486" x2="800" y2="486" fill="transparent" shape-rendering="crispEdges" stroke="black" stroke-width="1" stroke-opacity="0.1"></line><line class="visx-line" x1="0" y1="408" x2="800" y2="408" fill="transparent" shape-rendering="crispEdges" stroke="black" stroke-width="1" stroke-opacity="0.1"></line><line class="visx-line" x1="0" y1="329" x2="800" y2="329" fill="transparent" shape-rendering="crispEdges" stroke="black" stroke-width="1" stroke-opacity="0.1"></line><line class="visx-line" x1="0" y1="251" x2="800" y2="251" fill="transparent" shape-rendering="crispEdges" stroke="black" stroke-width="1" stroke-opacity="0.1"></line><line class="visx-line" x1="0" y1="172" x2="800" y2="172" fill="transparent" shape-rendering="crispEdges" stroke="black" stroke-width="1" stroke-opacity="0.1"></line><line class="visx-line" x1="0" y1="94" x2="800" y2="94" fill="transparent" shape-rendering="crispEdges" stroke="black" stroke-width="1" stroke-opacity="0.1"></line></g><g class="visx-group visx-columns" transform="translate(0, 0)"></g></g><path d="M8,694C10.666666666666666,705,13.333333333333334,475,16,423C18.666666666666668,371,21.333333333333332,337.5,24,382C26.666666666666668,426.5,29.333333333333332,683.3333333333334,32,690C34.666666666666664,696.6666666666666,37.333333333333336,517.6666666666666,40,422C42.666666666666664,326.33333333333337,45.166666666666664,155.16666666666666,48,116C50.833333333333336,76.83333333333334,54.166666666666664,89.33333333333334,57,187C59.833333333333336,284.66666666666663,62.333333333333336,668.5,65,702C67.66666666666667,735.5,70.33333333333333,384.3333333333333,73,388C75.66666666666667,391.6666666666667,78.33333333333333,720.8333333333334,81,724C83.66666666666667,727.1666666666666,86.33333333333333,462.3333333333333,89,407C91.66666666666667,351.6666666666667,94.33333333333333,444.8333333333333,97,392C99.66666666666667,339.1666666666667,102.33333333333333,42,105,90C107.66666666666667,138,110.33333333333333,661,113,680C115.66666666666667,699,118.33333333333333,239.33333333333331,121,204C123.66666666666667,168.66666666666669,126.33333333333333,403,129,468C131.66666666666666,533,134.33333333333334,560,137,594C139.66666666666666,628,142.16666666666666,734.6666666666666,145,672C147.83333333333334,609.3333333333334,151.16666666666666,217.66666666666666,154,218C156.83333333333334,218.33333333333334,159.33333333333334,605.6666666666666,162,674C164.66666666666666,742.3333333333334,167.33333333333334,700.1666666666666,170,628C172.66666666666666,555.8333333333334,175.33333333333334,222.66666666666666,178,241C180.66666666666666,259.3333333333333,183.33333333333334,695.8333333333334,186,738C188.66666666666666,780.1666666666666,191.33333333333334,551.5,194,494C196.66666666666666,436.5,199.33333333333334,401.1666666666667,202,393C204.66666666666666,384.8333333333333,207.33333333333334,411,210,445C212.66666666666666,479,215.33333333333334,601.8333333333334,218,597C220.66666666666666,592.1666666666666,223.33333333333334,383.3333333333333,226,416C228.66666666666666,448.6666666666667,231.33333333333334,763.1666666666666,234,793C236.66666666666666,822.8333333333334,239.16666666666666,627.1666666666666,242,595C244.83333333333334,562.8333333333334,248.16666666666666,667,251,600C253.83333333333334,533,256.3333333333333,199.66666666666666,259,193C261.6666666666667,186.33333333333334,264.3333333333333,535,267,560C269.6666666666667,585,272.3333333333333,345.6666666666667,275,343C277.6666666666667,340.3333333333333,280.3333333333333,469,283,544C285.6666666666667,619,288.3333333333333,751.3333333333334,291,793C293.6666666666667,834.6666666666666,296.3333333333333,867.1666666666666,299,794C301.6666666666667,720.8333333333334,304.3333333333333,401.8333333333333,307,354C309.6666666666667,306.1666666666667,312.3333333333333,511,315,507C317.6666666666667,503,320.3333333333333,346.5,323,330C325.6666666666667,313.5,328.3333333333333,336.83333333333337,331,408C333.6666666666667,479.16666666666663,336.3333333333333,723.1666666666666,339,757C341.6666666666667,790.8333333333334,344.1666666666667,718.5,347,611C349.8333333333333,503.5,353.1666666666667,156.83333333333331,356,112C358.8333333333333,67.16666666666667,361.3333333333333,274,364,342C366.6666666666667,410,369.3333333333333,552.5,372,520C374.6666666666667,487.5,377.3333333333333,126.33333333333334,380,147C382.6666666666667,167.66666666666666,385.3333333333333,590.8333333333334,388,644C390.6666666666667,697.1666666666666,393.3333333333333,493.1666666666667,396,466C398.6666666666667,438.8333333333333,401.3333333333333,459.6666666666667,404,481C406.6666666666667,502.3333333333333,409.3333333333333,563.8333333333334,412,594C414.6666666666667,624.1666666666666,417.3333333333333,716,420,662C422.6666666666667,608,425.3333333333333,304,428,270C430.6666666666667,236,433.3333333333333,439.6666666666667,436,458C438.6666666666667,476.3333333333333,441.1666666666667,409,444,380C446.8333333333333,351,450.1666666666667,287.1666666666667,453,284C455.8333333333333,280.8333333333333,458.3333333333333,277.1666666666667,461,361C463.6666666666667,444.8333333333333,466.3333333333333,786,469,787C471.6666666666667,788,474.3333333333333,476.8333333333333,477,367C479.6666666666667,257.1666666666667,482.3333333333333,105.66666666666667,485,128C487.6666666666667,150.33333333333334,490.3333333333333,409,493,501C495.6666666666667,593,498.3333333333333,750,501,680C503.6666666666667,610,506.3333333333333,124.5,509,81C511.6666666666667,37.5,514.3333333333334,356.5,517,419C519.6666666666666,481.5,522.3333333333334,517.5,525,456C527.6666666666666,394.5,530.3333333333334,11,533,50C535.6666666666666,89,538.3333333333334,576,541,690C543.6666666666666,804,546.1666666666666,776.5,549,734C551.8333333333334,691.5,555.1666666666666,479.8333333333333,558,435C560.8333333333334,390.1666666666667,563.3333333333334,438.3333333333333,566,465C568.6666666666666,491.6666666666667,571.3333333333334,601.5,574,595C576.6666666666666,588.5,579.3333333333334,410,582,426C584.6666666666666,442,587.3333333333334,699.8333333333334,590,691C592.6666666666666,682.1666666666666,595.3333333333334,455.5,598,373C600.6666666666666,290.5,603.3333333333334,234.33333333333331,606,196C608.6666666666666,157.66666666666669,611.3333333333334,60.83333333333334,614,143C616.6666666666666,225.16666666666666,619.3333333333334,632.5,622,689C624.6666666666666,745.5,627.3333333333334,497.1666666666667,630,482C632.6666666666666,466.8333333333333,635.3333333333334,601.8333333333334,638,598C640.6666666666666,594.1666666666666,643.1666666666666,453.6666666666667,646,459C648.8333333333334,464.3333333333333,652.1666666666666,643.8333333333334,655,630C657.8333333333334,616.1666666666666,660.3333333333334,402.1666666666667,663,376C665.6666666666666,349.8333333333333,668.3333333333334,429.3333333333333,671,473C673.6666666666666,516.6666666666666,676.3333333333334,649.8333333333334,679,638C681.6666666666666,626.1666666666666,684.3333333333334,425.1666666666667,687,402C689.6666666666666,378.8333333333333,692.3333333333334,462.5,695,499C697.6666666666666,535.5,700.3333333333334,660.1666666666666,703,621C705.6666666666666,581.8333333333334,708.3333333333334,282.6666666666667,711,264C713.6666666666666,245.33333333333334,716.3333333333334,472.3333333333333,719,509C721.6666666666666,545.6666666666666,724.3333333333334,537.6666666666666,727,484C729.6666666666666,430.3333333333333,732.3333333333334,156.66666666666666,735,187C737.6666666666666,217.33333333333334,740.1666666666666,587,743,666C745.8333333333334,745,749.1666666666666,683.3333333333334,752,661C754.8333333333334,638.6666666666666,757.3333333333334,562.8333333333334,760,532C762.6666666666666,501.1666666666667,765.3333333333334,434.1666666666667,768,476C770.6666666666666,517.8333333333334,773.3333333333334,835.6666666666666,776,783C778.6666666666666,730.3333333333334,781.3333333333334,193.33333333333331,784,160C786.6666666666666,126.66666666666667,789.3333333333334,550,792,583" fill="transparent" stroke-linecap="round" pointer-events="none" shape-rendering="geometricPrecision" marker-mid="url(#marker-circle)" stroke="blue" opacity="0.6" stroke-width="1.5"></path><g class="visx-group visx-axis visx-axis-bottom" transform="translate(0, 800)"><g class="visx-group visx-axis-tick" transform="translate(0, 0)"><line class="visx-line" x1="0" y1="0" x2="0" y2="8" fill="transparent" shape-rendering="crispEdges" stroke="#222" stroke-width="1" stroke-linecap="square"></line><svg x="0" y="0.25em" font-size="15" style="overflow: visible;"><text transform="" x="0" y="23" font-family="Noto Sans" font-size="15" fill="#222" text-anchor="middle"><tspan x="0" dy="0em">0</tspan></text></svg></g><g class="visx-group visx-axis-tick" transform="translate(0, 0)"><line class="visx-line" x1="40" y1="0" x2="40" y2="8" fill="transparent" shape-rendering="crispEdges" stroke="#222" stroke-width="1" stroke-linecap="square"></line><svg x="0" y="0.25em" font-size="15" style="overflow: visible;"><text transform="" x="40" y="23" font-family="Noto Sans" font-size="15" fill="#222" text-anchor="middle"><tspan x="40" dy="0em">5</tspan></text></svg></g><g class="visx-group visx-axis-tick" transform="translate(0, 0)"><line class="visx-line" x1="81" y1="0" x2="81" y2="8" fill="transparent" shape-rendering="crispEdges" stroke="#222" stroke-width="1" stroke-linecap="square"></line><svg x="0" y="0.25em" font-size="15" style="overflow: visible;"><text transform="" x="81" y="23" font-family="Noto Sans" font-size="15" fill="#222" text-anchor="middle"><tspan x="81" dy="0em">10</tspan></text></svg></g><g class="visx-group visx-axis-tick" transform="translate(0, 0)"><line class="visx-line" x1="121" y1="0" x2="121" y2="8" fill="transparent" shape-rendering="crispEdges" stroke="#222" stroke-width="1" stroke-linecap="square"></line><svg x="0" y="0.25em" font-size="15" style="overflow: visible;"><text transform="" x="121" y="23" font-family="Noto Sans" font-size="15" fill="#222" text-anchor="middle"><tspan x="121" dy="0em">15</tspan></text></svg></g><g class="visx-group visx-axis-tick" transform="translate(0, 0)"><line class="visx-line" x1="162" y1="0" x2="162" y2="8" fill="transparent" shape-rendering="crispEdges" stroke="#222" stroke-width="1" stroke-linecap="square"></line><svg x="0" y="0.25em" font-size="15" style="overflow: visible;"><text transform="" x="162" y="23" font-family="Noto Sans" font-size="15" fill="#222" text-anchor="middle"><tspan x="162" dy="0em">20</tspan></text></svg></g><g class="visx-group visx-axis-tick" transform="translate(0, 0)"><line class="visx-line" x1="202" y1="0" x2="202" y2="8" fill="transparent" shape-rendering="crispEdges" stroke="#222" stroke-width="1" stroke-linecap="square"></line><svg x="0" y="0.25em" font-size="15" style="overflow: visible;"><text transform="" x="202" y="23" font-family="Noto Sans" font-size="15" fill="#222" text-anchor="middle"><tspan x="202" dy="0em">25</tspan></text></svg></g><g class="visx-group visx-axis-tick" transform="translate(0, 0)"><line class="visx-line" x1="242" y1="0" x2="242" y2="8" fill="transparent" shape-rendering="crispEdges" stroke="#222" stroke-width="1" stroke-linecap="square"></line><svg x="0" y="0.25em" font-size="15" style="overflow: visible;"><text transform="" x="242" y="23" font-family="Noto Sans" font-size="15" fill="#222" text-anchor="middle"><tspan x="242" dy="0em">30</tspan></text></svg></g><g class="visx-group visx-axis-tick" transform="translate(0, 0)"><line class="visx-line" x1="283" y1="0" x2="283" y2="8" fill="transparent" shape-rendering="crispEdges" stroke="#222" stroke-width="1" stroke-linecap="square"></line><svg x="0" y="0.25em" font-size="15" style="overflow: visible;"><text transform="" x="283" y="23" font-family="Noto Sans" font-size="15" fill="#222" text-anchor="middle"><tspan x="283" dy="0em">35</tspan></text></svg></g><g class="visx-group visx-axis-tick" transform="translate(0, 0)"><line class="visx-line" x1="323" y1="0" x2="323" y2="8" fill="transparent" shape-rendering="crispEdges" stroke="#222" stroke-width="1" stroke-linecap="square"></line><svg x="0" y="0.25em" font-size="15" style="overflow: visible;"><text transform="" x="323" y="23" font-family="Noto Sans" font-size="15" fill="#222" text-anchor="middle"><tspan x="323" dy="0em">40</tspan></text></svg></g><g class="visx-group visx-axis-tick" transform="translate(0, 0)"><line class="visx-line" x1="364" y1="0" x2="364" y2="8" fill="transparent" shape-rendering="crispEdges" stroke="#222" stroke-width="1" stroke-linecap="square"></line><svg x="0" y="0.25em" font-size="15" style="overflow: visible;"><text transform="" x="364" y="23" font-family="Noto Sans" font-size="15" fill="#222" text-anchor="middle"><tspan x="364" dy="0em">45</tspan></text></svg></g><g class="visx-group visx-axis-tick" transform="translate(0, 0)"><line class="visx-line" x1="404" y1="0" x2="404" y2="8" fill="transparent" shape-rendering="crispEdges" stroke="#222" stroke-width="1" stroke-linecap="square"></line><svg x="0" y="0.25em" font-size="15" style="overflow: visible;"><text transform="" x="404" y="23" font-family="Noto Sans" font-size="15" fill="#222" text-anchor="middle"><tspan x="404" dy="0em">50</tspan></text></svg></g><g class="visx-group visx-axis-tick" transform="translate(0, 0)"><line class="visx-line" x1="444" y1="0" x2="444" y2="8" fill="transparent" shape-rendering="crispEdges" stroke="#222" stroke-width="1" stroke-linecap="square"></line><svg x="0" y="0.25em" font-size="15" style="overflow: visible;"><text transform="" x="444" y="23" font-family="Noto Sans" font-size="15" fill="#222" text-anchor="middle"><tspan x="444" dy="0em">55</tspan></text></svg></g><g class="visx-group visx-axis-tick" transform="translate(0, 0)"><line class="visx-line" x1="485" y1="0" x2="485" y2="8" fill="transparent" shape-rendering="crispEdges" stroke="#222" stroke-width="1" stroke-linecap="square"></line><svg x="0" y="0.25em" font-size="15" style="overflow: visible;"><text transform="" x="485" y="23" font-family="Noto Sans" font-size="15" fill="#222" text-anchor="middle"><tspan x="485" dy="0em">60</tspan></text></svg></g><g class="visx-group visx-axis-tick" transform="translate(0, 0)"><line class="visx-line" x1="525" y1="0" x2="525" y2="8" fill="transparent" shape-rendering="crispEdges" stroke="#222" stroke-width="1" stroke-linecap="square"></line><svg x="0" y="0.25em" font-size="15" style="overflow: visible;"><text transform="" x="525" y="23" font-family="Noto Sans" font-size="15" fill="#222" text-anchor="middle"><tspan x="525" dy="0em">65</tspan></text></svg></g><g class="visx-group visx-axis-tick" transform="translate(0, 0)"><line class="visx-line" x1="566" y1="0" x2="566" y2="8" fill="transparent" shape-rendering="crispEdges" stroke="#222" stroke-width="1" stroke-linecap="square"></line><svg x="0" y="0.25em" font-size="15" style="overflow: visible;"><text transform="" x="566" y="23" font-family="Noto Sans" font-size="15" fill="#222" text-anchor="middle"><tspan x="566" dy="0em">70</tspan></text></svg></g><g class="visx-group visx-axis-tick" transform="translate(0, 0)"><line class="visx-line" x1="606" y1="0" x2="606" y2="8" fill="transparent" shape-rendering="crispEdges" stroke="#222" stroke-width="1" stroke-linecap="square"></line><svg x="0" y="0.25em" font-size="15" style="overflow: visible;"><text transform="" x="606" y="23" font-family="Noto Sans" font-size="15" fill="#222" text-anchor="middle"><tspan x="606" dy="0em">75</tspan></text></svg></g><g class="visx-group visx-axis-tick" transform="translate(0, 0)"><line class="visx-line" x1="646" y1="0" x2="646" y2="8" fill="transparent" shape-rendering="crispEdges" stroke="#222" stroke-width="1" stroke-linecap="square"></line><svg x="0" y="0.25em" font-size="15" style="overflow: visible;"><text transform="" x="646" y="23" font-family="Noto Sans" font-size="15" fill="#222" text-anchor="middle"><tspan x="646" dy="0em">80</tspan></text></svg></g><g class="visx-group visx-axis-tick" transform="translate(0, 0)"><line class="visx-line" x1="687" y1="0" x2="687" y2="8" fill="transparent" shape-rendering="crispEdges" stroke="#222" stroke-width="1" stroke-linecap="square"></line><svg x="0" y="0.25em" font-size="15" style="overflow: visible;"><text transform="" x="687" y="23" font-family="Noto Sans" font-size="15" fill="#222" text-anchor="middle"><tspan x="687" dy="0em">85</tspan></text></svg></g><g class="visx-group visx-axis-tick" transform="translate(0, 0)"><line class="visx-line" x1="727" y1="0" x2="727" y2="8" fill="transparent" shape-rendering="crispEdges" stroke="#222" stroke-width="1" stroke-linecap="square"></line><svg x="0" y="0.25em" font-size="15" style="overflow: visible;"><text transform="" x="727" y="23" font-family="Noto Sans" font-size="15" fill="#222" text-anchor="middle"><tspan x="727" dy="0em">90</tspan></text></svg></g><g class="visx-group visx-axis-tick" transform="translate(0, 0)"><line class="visx-line" x1="768" y1="0" x2="768" y2="8" fill="transparent" shape-rendering="crispEdges" stroke="#222" stroke-width="1" stroke-linecap="square"></line><svg x="0" y="0.25em" font-size="15" style="overflow: visible;"><text transform="" x="768" y="23" font-family="Noto Sans" font-size="15" fill="#222" text-anchor="middle"><tspan x="768" dy="0em">95</tspan></text></svg></g><line class="visx-line visx-axis-line" x1="0.5" y1="0" x2="800.5" y2="0" fill="transparent" shape-rendering="crispEdges" stroke="#222" stroke-width="1"></line><svg x="0" y="0" font-size="18" style="overflow: visible;"><text class="visx-axis-label" x="400" y="61" font-size="18" font-family="Noto Sans" text-anchor="middle"><tspan x="400" dy="0.355em">x axis label</tspan></text></svg></g><g class="visx-group visx-axis visx-axis-left" transform="translate(0, 0)"><g class="visx-group visx-axis-tick" transform="translate(0, 0)"><line class="visx-line" x1="0" y1="800" x2="-8" y2="800" fill="transparent" shape-rendering="crispEdges" stroke="#222" stroke-width="1" stroke-linecap="square"></line><svg x="-0.25em" y="0.25em" font-size="15" style="overflow: visible;"><text transform="" x="-8" y="800" font-family="Noto Sans" font-size="15" fill="#222" text-anchor="end"><tspan x="-8" dy="0em">0</tspan></text></svg></g><g class="visx-group visx-axis-tick" transform="translate(0, 0)"><line class="visx-line" x1="0" y1="722" x2="-8" y2="722" fill="transparent" shape-rendering="crispEdges" stroke="#222" stroke-width="1" stroke-linecap="square"></line><svg x="-0.25em" y="0.25em" font-size="15" style="overflow: visible;"><text transform="" x="-8" y="722" font-family="Noto Sans" font-size="15" fill="#222" text-anchor="end"><tspan x="-8" dy="0em">0.5</tspan></text></svg></g><g class="visx-group visx-axis-tick" transform="translate(0, 0)"><line class="visx-line" x1="0" y1="643" x2="-8" y2="643" fill="transparent" shape-rendering="crispEdges" stroke="#222" stroke-width="1" stroke-linecap="square"></line><svg x="-0.25em" y="0.25em" font-size="15" style="overflow: visible;"><text transform="" x="-8" y="643" font-family="Noto Sans" font-size="15" fill="#222" text-anchor="end"><tspan x="-8" dy="0em">1</tspan></text></svg></g><g class="visx-group visx-axis-tick" transform="translate(0, 0)"><line class="visx-line" x1="0" y1="565" x2="-8" y2="565" fill="transparent" shape-rendering="crispEdges" stroke="#222" stroke-width="1" stroke-linecap="square"></line><svg x="-0.25em" y="0.25em" font-size="15" style="overflow: visible;"><text transform="" x="-8" y="565" font-family="Noto Sans" font-size="15" fill="#222" text-anchor="end"><tspan x="-8" dy="0em">1.5</tspan></text></svg></g><g class="visx-group visx-axis-tick" transform="translate(0, 0)"><line class="visx-line" x1="0" y1="486" x2="-8" y2="486" fill="transparent" shape-rendering="crispEdges" stroke="#222" stroke-width="1" stroke-linecap="square"></line><svg x="-0.25em" y="0.25em" font-size="15" style="overflow: visible;"><text transform="" x="-8" y="486" font-family="Noto Sans" font-size="15" fill="#222" text-anchor="end"><tspan x="-8" dy="0em">2</tspan></text></svg></g><g class="visx-group visx-axis-tick" transform="translate(0, 0)"><line class="visx-line" x1="0" y1="408" x2="-8" y2="408" fill="transparent" shape-rendering="crispEdges" stroke="#222" stroke-width="1" stroke-linecap="square"></line><svg x="-0.25em" y="0.25em" font-size="15" style="overflow: visible;"><text transform="" x="-8" y="408" font-family="Noto Sans" font-size="15" fill="#222" text-anchor="end"><tspan x="-8" dy="0em">2.5</tspan></text></svg></g><g class="visx-group visx-axis-tick" transform="translate(0, 0)"><line class="visx-line" x1="0" y1="329" x2="-8" y2="329" fill="transparent" shape-rendering="crispEdges" stroke="#222" stroke-width="1" stroke-linecap="square"></line><svg x="-0.25em" y="0.25em" font-size="15" style="overflow: visible;"><text transform="" x="-8" y="329" font-family="Noto Sans" font-size="15" fill="#222" text-anchor="end"><tspan x="-8" dy="0em">3</tspan></text></svg></g><g class="visx-group visx-axis-tick" transform="translate(0, 0)"><line class="visx-line" x1="0" y1="251" x2="-8" y2="251" fill="transparent" shape-rendering="crispEdges" stroke="#222" stroke-width="1" stroke-linecap="square"></line><svg x="-0.25em" y="0.25em" font-size="15" style="overflow: visible;"><text transform="" x="-8" y="251" font-family="Noto Sans" font-size="15" fill="#222" text-anchor="end"><tspan x="-8" dy="0em">3.5</tspan></text></svg></g><g class="visx-group visx-axis-tick" transform="translate(0, 0)"><line class="visx-line" x1="0" y1="172" x2="-8" y2="172" fill="transparent" shape-rendering="crispEdges" stroke="#222" stroke-width="1" stroke-linecap="square"></line><svg x="-0.25em" y="0.25em" font-size="15" style="overflow: visible;"><text transform="" x="-8" y="172" font-family="Noto Sans" font-size="15" fill="#222" text-anchor="end"><tspan x="-8" dy="0em">4</tspan></text></svg></g><g class="visx-group visx-axis-tick" transform="translate(0, 0)"><line class="visx-line" x1="0" y1="94" x2="-8" y2="94" fill="transparent" shape-rendering="crispEdges" stroke="#222" stroke-width="1" stroke-linecap="square"></line><svg x="-0.25em" y="0.25em" font-size="15" style="overflow: visible;"><text transform="" x="-8" y="94" font-family="Noto Sans" font-size="15" fill="#222" text-anchor="end"><tspan x="-8" dy="0em">4.5</tspan></text></svg></g><line class="visx-line visx-axis-line" x1="0" y1="800.5" x2="0" y2="50.5" fill="transparent" shape-rendering="crispEdges" stroke="#222" stroke-width="1"></line><svg x="0" y="0" font-size="18" style="overflow: visible;"><text transform="rotate(-90)" class="visx-axis-label" x="-425" y="-48" font-size="18" font-family="Noto Sans" text-anchor="middle"><tspan x="-425" dy="0.355em">y axis label</tspan></text></svg></g></g></svg>